<svg id="Capa_1" enable-background="new 0 0 510 510" height="512" viewBox="0 0 510 510" width="512" xmlns="http://www.w3.org/2000/svg"><g><path d="m447.443 0h-383.422c-40.481 170.299-50.771 278.32 0 510h383.423l2.841-11.362c68.371-273.505-1.191-485.092-2.842-498.638zm-359.93 30h336.438c2.374 9.98 4.601 20.005 6.664 30h-349.766c2.063-9.995 4.29-20.02 6.664-30zm-12.37 60h361.178c19.1 109.555 19.1 220.445 0 330h-361.178c-19.1-109.555-19.1-220.445 0-330zm348.808 390h-336.438c-2.374-9.98-4.601-20.005-6.664-30h349.766c-2.063 9.995-4.29 20.02-6.664 30z"/><path d="m357.921 202.894c-30.16 9.134-39.362 15.64-44.009 20.287-14.119 14.119-16.642 34.847-8.801 51.228l-34.379 34.379v-173.788h-30v113.787l-33.733-33.733c7.768-16.664 4.787-37.14-8.947-50.874-4.647-4.646-13.85-11.152-44.009-20.286-19.507-5.907-33.271-8.765-53.256-13.34 4.565 19.942 7.426 33.729 13.339 53.257 9.133 30.16 15.639 39.362 20.287 44.009v.001c13.787 13.786 34.561 16.88 51.543 8.616l54.776 54.776v98.787h30v-38.787l55.611-55.611c16.701 7.955 37.347 5.079 51.209-8.782l.001-.001c4.647-4.647 11.152-13.85 20.286-44.009 5.908-19.507 8.764-33.267 13.34-53.257-.001.001-33.73 7.427-53.258 13.341zm-202.289 3.719c-3.236-3.4-8.767-17.739-13.896-35.113 17.374 5.127 31.712 10.659 35.103 13.893 5.849 5.848 5.849 15.365 0 21.213-5.846 5.847-15.358 5.85-21.207.007zm200.699 59.002c-5.85 5.841-15.36 5.838-21.206-.008-5.849-5.848-5.849-15.365-.011-21.203 3.392-3.235 17.735-8.769 35.117-13.9-5.126 17.369-10.658 31.706-13.9 35.111z"/></g></svg>