<svg id="Capa_1" enable-background="new 0 0 512 512" height="512" viewBox="0 0 512 512" width="512" xmlns="http://www.w3.org/2000/svg"><g><path d="m29.011 440.336c-.471 5.332 1.332 10.655 4.947 14.603s8.759 6.212 14.112 6.212h80.117v28.349c0 12.407 10.093 22.5 22.5 22.5h55.091c12.407 0 22.5-10.093 22.5-22.5v-28.349h80.117c5.353 0 10.497-2.265 14.112-6.213s5.418-9.271 4.947-14.603l-30.473-345.168h30.919c18.288 0 33.167 14.878 33.167 33.167v318c0 26.559 21.607 48.166 48.167 48.166 26.559 0 48.167-21.607 48.167-48.166v-95.629c6.167-1.416 11.802-4.57 16.323-9.239 6.302-6.508 9.613-15.08 9.322-24.135-.003-.087-.007-.175-.013-.262l-3.727-55.429c-.278-4.133-3.856-7.259-7.986-6.98-4.133.278-7.258 3.853-6.98 7.986l3.717 55.287c.126 4.915-1.685 9.562-5.109 13.097-3.452 3.565-8.086 5.528-13.047 5.528-4.962 0-9.596-1.963-13.047-5.527-3.424-3.536-5.236-8.183-5.109-13.097l18.155-270.056 12.247 182.154c.278 4.133 3.852 7.266 7.986 6.98 4.133-.278 7.258-3.853 6.98-7.986l-12.794-190.291c-.508-7.56-6.842-13.482-14.419-13.482s-13.911 5.922-14.419 13.483l-18.713 278.333c-.006.087-.01.175-.013.262-.291 9.055 3.02 17.626 9.323 24.134 4.521 4.669 10.156 7.823 16.323 9.239v95.629c0 18.288-14.878 33.166-33.167 33.166-18.288 0-33.167-14.878-33.167-33.166v-318c0-26.56-21.607-48.167-48.167-48.167h-32.243l-1.048-11.867c-.878-9.949-9.071-17.451-19.059-17.451h-47.271v-28.348c0-12.407-10.093-22.5-22.5-22.5h-55.091c-12.407 0-22.5 10.093-22.5 22.5v28.349h-47.272c-9.987 0-18.181 7.502-19.059 17.45l-22.099 250.318c-.365 4.126 2.685 7.767 6.811 8.131 4.127.362 7.767-2.686 8.13-6.812l1.346-15.246h244.376l5.948 67.37h-49.768c-4.142 0-7.5 3.358-7.5 7.5s3.358 7.5 7.5 7.5h51.092l4.82 54.595c.139 1.577-.61 2.653-1.069 3.154s-1.465 1.342-3.049 1.342h-260.325c-1.583 0-2.589-.841-3.048-1.342s-1.208-1.578-1.068-3.154l4.82-54.595h175.14c4.142 0 7.5-3.358 7.5-7.5s-3.358-7.5-7.5-7.5h-173.816l1.727-19.564c.364-4.126-2.686-7.766-6.812-8.13-4.125-.369-7.767 2.685-8.131 6.811zm184.268 49.164c0 4.136-3.364 7.5-7.5 7.5h-55.091c-4.136 0-7.5-3.364-7.5-7.5v-28.349h70.091zm78.496-282.734-82.968 82.924h-95.325l170.567-170.442zm-148.588-184.266c0-4.136 3.364-7.5 7.5-7.5h55.091c4.136 0 7.5 3.364 7.5 7.5v28.349h-70.091zm56.717 43.349-59.082 59.082h-68.907l4.883-55.312c.19-2.149 1.96-3.77 4.118-3.77zm-129.313 74.081h55.232l-60.58 60.58zm150.526-74.081h54.433c2.158 0 3.927 1.62 4.117 3.77l2.661 30.144-190.066 189.927h-34.893l5.819-65.913zm8.909 223.841 63.47-63.436 5.6 63.436z"/></g></svg>