<svg height="512" viewBox="0 0 512 512" width="512" xmlns="http://www.w3.org/2000/svg"><g id="Fruits_Vegetables_Tracking_Monitor" data-name="Fruits Vegetables Tracking Monitor"><g id="Filled"><path d="m256 504-248-152.61 248-133.39 248 133.39z" fill="#9ccc65"/><path d="m256 504 248-152.61-118.548-63.762a363.187 363.187 0 0 1 -272.515 128.336z" fill="#83bd46"/><path d="m216 174.968c0 56.867-96 201.032-96 201.032s-96-144.165-96-201.032 42.981-102.968 96-102.968 96 46.1 96 102.968z" fill="#b2ebf2"/><path d="m488 110.968c0 56.867-96 201.032-96 201.032s-96-144.165-96-201.032 42.981-102.968 96-102.968 96 46.1 96 102.968z" fill="#b2ebf2"/><path d="m122.3 203.389s36.646-6.35 50.652-20.356 13.506-27.07 5.14-35.436-21.429-8.865-35.435 5.14-20.357 50.652-20.357 50.652z" fill="#9ccc65"/><path d="m392 98.353a26.9 26.9 0 0 1 21.333-10.353c14.728 0 26.667 8.148 26.667 25.882 0 14.859-10.667 62.118-32 62.118-9.6 0-16-9.778-16-9.778s-6.4 9.778-16 9.778c-21.333 0-32-47.259-32-62.118 0-17.734 11.939-25.882 26.667-25.882a26.9 26.9 0 0 1 21.333 10.353z" fill="#ea7432"/><path d="m117.094 203.389s-36.646-6.35-50.652-20.356-13.506-27.07-5.142-35.433 21.43-8.865 35.435 5.14 20.359 50.649 20.359 50.649z" fill="#9ccc65"/><path d="m423.971 89.641a55.485 55.485 0 0 1 -75.4 50.656c5.011 17.403 14.154 35.703 27.429 35.703 9.6 0 16-9.778 16-9.778s6.4 9.778 16 9.778c21.333 0 32-47.259 32-62.118 0-13.182-6.6-21.06-16.029-24.241z" fill="#e2601e"/><circle cx="364" cy="108" fill="#fa9664" r="12"/><circle cx="392" cy="120" fill="#fa9664" r="8"/><path d="m171.632 143.168a80.694 80.694 0 0 1 -46.82 48.81c-1.693 6.689-2.515 11.411-2.515 11.411s36.646-6.35 50.652-20.356c17.576-17.576 11.651-34.333-1.317-39.865z" fill="#83bd46"/><circle cx="74" cy="159.333" fill="#c6ed93" r="10"/><circle cx="94.667" cy="174.667" fill="#c6ed93" r="6.667"/><g fill="#80deea"><path d="m80.329 311.514c20.924 36.329 39.671 64.486 39.671 64.486s38.719-58.15 66.978-115.156a163.5 163.5 0 0 1 -106.649 50.67z"/><path d="m352.328 247.513c20.924 36.33 39.672 64.487 39.672 64.487s38.742-58.185 67-115.207a163.506 163.506 0 0 1 -106.672 50.72z"/></g></g><g id="Outline"><path d="m507.79 344.345-73.741-39.66a8 8 0 1 0 -7.579 14.09l61.508 33.081-231.978 142.75-231.979-142.75 32.329-17.391a8 8 0 1 0 -7.58-14.09l-44.56 23.97a8.005 8.005 0 0 0 -.4 13.859c261.509 160.4 249.826 156.645 256.386 152.609 257.17-160.087 252.057-150.824 251.804-159.656a8 8 0 0 0 -4.21-6.812z"/><path d="m239.79 235.805 16.21-8.721c60.156 31.96 57.768 32.027 61.562 32.027 8.3 0 11.08-11.13 3.8-15.047l-61.57-33.11c-6.285-3.38-10 2.372-27.579 10.76a8 8 0 0 0 7.58 14.091z"/><path d="m218.866 270.7a8 8 0 0 0 3.256 10.835l16.99 9.138-42.812 23.027c-7.3 3.926-4.492 15.047 3.8 15.047 3.73 0 1.5-.119 55.905-28.991l103.8 55.831-42.742 26.3-47.236-29.067a8 8 0 1 0 -8.386 13.627l40.357 24.834-45.798 28.179-83.719-51.517a8 8 0 1 0 -8.381 13.627l76.839 47.284-19.016 11.7a8 8 0 1 0 8.385 13.627l25.892-15.934c26.144 15.624 26.1 17.123 30.081 17.123 8.03 0 11.061-10.592 4.2-14.815l-19.016-11.7 45.794-28.18 22.378 13.77a8 8 0 0 0 8.386-13.627l-15.5-9.537 43.767-26.933 26.03 14a8 8 0 0 0 7.579-14.091l-17.856-9.6 18.257-11.24a8 8 0 1 0 -8.385-13.626l-26.165 16.1-102.662-55.221 16.99-9.138a8 8 0 1 0 -7.579-14.091l-26.299 14.146-26.3-14.146a8 8 0 0 0 -10.834 3.259z"/><path d="m398.659 316.434c3.974-5.969 97.341-146.852 97.341-205.466 0-88-91.511-140.209-159.924-93.579a8 8 0 0 0 9.01 13.221c58.014-39.536 134.914 5.395 134.914 80.358 0 45.306-66.444 152.7-88 186.343-21.556-33.645-88-141.037-88-186.343a101.865 101.865 0 0 1 4.093-28.714 8 8 0 1 0 -15.351-4.508 117.82 117.82 0 0 0 -4.742 33.222c0 58.614 93.367 199.5 97.341 205.466a8 8 0 0 0 13.318 0z"/><path d="m336 113.882c0 14.272 10.44 70.118 40 70.118a25.313 25.313 0 0 0 16-6.114 25.313 25.313 0 0 0 16 6.114c29.56 0 40-55.846 40-70.118 0-29.486-27.429-38.544-46.418-31.9-5.374-32.267-41.582-42.936-41.582-25.982a8 8 0 0 0 8 8c7.531 0 15.516 10.436 17.546 19.254-19.017-8.822-49.546-.6-49.546 30.628zm49.674-10.633a8 8 0 0 0 6.326 3.1c7.716 0 7.509-10.353 21.333-10.353 8.516.004 18.667 3.104 18.667 17.886 0 21.6-17.356 71.519-33.306 47.959a7.973 7.973 0 0 0 -13.355-.049c-16.083 23.764-33.339-26.682-33.339-47.91 0-14.782 10.151-17.882 18.667-17.882a18.8 18.8 0 0 1 15.007 7.249z"/><path d="m126.659 380.434c3.974-5.969 97.341-146.852 97.341-205.466 0-61.188-46.654-110.968-104-110.968a97.761 97.761 0 0 0 -43.533 10.159 8 8 0 0 0 7.066 14.355 81.889 81.889 0 0 1 36.467-8.514c48.523 0 88 42.6 88 94.968 0 45.306-66.444 152.7-88 186.343-21.556-33.645-88-141.037-88-186.343a99.948 99.948 0 0 1 9.762-43.514 8 8 0 0 0 -14.432-6.908 115.828 115.828 0 0 0 -11.33 50.422c0 58.614 93.367 199.5 97.341 205.466a8 8 0 0 0 13.318 0z"/><path d="m112 210.561v29.439h-8a8 8 0 0 0 0 16h32a8 8 0 0 0 0-16h-8v-29.565c10.865-2.255 37.782-8.921 50.606-21.745 43.423-43.422-32.327-93.951-58.91-8.252-26.642-85.886-102.296-35.138-58.911 8.252 13.07 13.07 40.782 19.745 51.215 21.871zm36.311-52.167c3.767-3.767 9.879-8.707 16.019-8.707 8.149 0 19.8 10.848 2.962 27.689-7.076 7.076-22.619 12.394-34.464 15.483 3.089-11.845 8.406-27.389 15.483-34.465zm-73.25-8.707c6.14 0 12.252 4.94 16.02 8.707 7.076 7.076 12.394 22.62 15.482 34.465-11.845-3.089-27.388-8.407-34.464-15.483-16.755-16.754-5.193-27.689 2.962-27.689z"/><circle cx="56" cy="104" r="8"/><circle cx="240" cy="344" r="8"/><circle cx="312" cy="48" r="8"/></g></g></svg>